<?xml version="1.0" encoding="iso-8859-1"?>
<!-- Generator: Adobe Illustrator 19.0.0, SVG Export Plug-In . SVG Version: 6.00 Build 0)  -->
<svg version="1.1" id="Layer_1" xmlns="http://www.w3.org/2000/svg" xmlns:xlink="http://www.w3.org/1999/xlink" x="0px" y="0px"
	 viewBox="0 0 504.131 504.131" style="enable-background:new 0 0 504.131 504.131;" xml:space="preserve">
<circle style="fill:#ED9200;" cx="252.065" cy="252.069" r="252.062"/>
<path style="fill:#EA6F00;" d="M73.834,73.823c98.43-98.43,258.032-98.43,356.462,0c98.438,98.446,98.446,258.032,0,356.478"/>
<path style="fill:#363D3B;" d="M384.405,181.918H348.4V383.33c0,1.434-0.331,2.796-0.859,4.033h36.872
	c13.43,0,24.332-10.894,24.332-24.34V206.257C408.737,192.811,397.835,181.918,384.405,181.918z"/>
<g>
	<path style="fill:#1D2321;" d="M384.405,181.918H348.4v166.487l38.691,38.691c12.162-1.355,21.646-11.555,21.646-24.08V206.257
		C408.737,192.811,397.835,181.918,384.405,181.918z"/>
	<path style="fill:#1D2321;" d="M328.117,181.918h-6.435v-40.582c0-13.997-8.507-24.568-19.81-24.568h-99.604
		c-11.114,0-19.834,10.799-19.834,24.568v40.582h-6.42V383.33c0,1.434-0.331,2.796-0.851,4.033h153.813
		c-0.536-1.229-0.851-2.599-0.851-4.033V181.918H328.117z M206.788,141.328c0-0.079,0-0.158,0-0.228h90.569c0,0.079,0,0.158,0,0.228
		v31.2h-90.569V141.328z"/>
</g>
<path style="fill:#363D3B;" d="M321.681,141.328c0-13.997-8.507-24.568-19.81-24.568h-99.604c-11.114,0-19.834,10.799-19.834,24.568
	v40.582h-0.52l146.211,146.204V181.918h-6.435v-40.59H321.681z M297.357,141.328v31.2h-90.569v-31.2c0-0.079,0-0.158,0-0.228h90.569
	C297.357,141.178,297.357,141.257,297.357,141.328z"/>
<path style="fill:#1D2321;" d="M155.738,181.918h-36.005c-13.454,0-24.34,10.894-24.34,24.34v156.767
	c0,13.446,10.886,24.34,24.34,24.34h36.864c-0.544-1.229-0.851-2.599-0.851-4.033V181.918H155.738z"/>
<g>
</g>
<g>
</g>
<g>
</g>
<g>
</g>
<g>
</g>
<g>
</g>
<g>
</g>
<g>
</g>
<g>
</g>
<g>
</g>
<g>
</g>
<g>
</g>
<g>
</g>
<g>
</g>
<g>
</g>
</svg>
