<svg height="512pt" viewBox="0 0 512 512" width="512pt" xmlns="http://www.w3.org/2000/svg" xmlns:xlink="http://www.w3.org/1999/xlink"><linearGradient id="a" gradientUnits="userSpaceOnUse" x1="0" x2="512" y1="256" y2="256"><stop offset="0" stop-color="#00f38d"/><stop offset="1" stop-color="#009eff"/></linearGradient><path d="m512 256c0 141.386719-114.613281 256-256 256s-256-114.613281-256-256 114.613281-256 256-256 256 114.613281 256 256zm0 0" fill="url(#a)"/><g fill="#fff"><path d="m376.78125 344.117188c8.140625-9.632813 13.0625-22.066407 13.0625-35.632813 0-30.484375-24.800781-55.285156-55.285156-55.285156s-55.285156 24.800781-55.285156 55.285156c0 13.789063 5.085937 26.40625 13.464843 36.097656-14.984375 7.601563-27.675781 19.089844-36.738281 33.132813-9.0625-14.042969-21.753906-25.53125-36.734375-33.132813 8.378906-9.691406 13.464844-22.308593 13.464844-36.097656 0-30.484375-24.800781-55.285156-55.285157-55.285156-30.484374 0-55.285156 24.800781-55.285156 55.285156 0 13.566406 4.917969 26 13.058594 35.632813-31.175781 15.382812-52.671875 47.503906-52.671875 84.554687h30c0-35.414063 28.8125-64.226563 64.226563-64.226563 35.417968 0 64.226562 28.808594 64.226562 64.226563h30c0-35.417969 28.8125-64.230469 64.226562-64.230469 35.417969 0 64.230469 28.816406 64.230469 64.230469h30c0-37.050781-21.5-69.171875-52.675781-84.554687zm-199.339844-60.917969c13.941406 0 25.285156 11.34375 25.285156 25.285156s-11.34375 25.285156-25.285156 25.285156-25.285156-11.34375-25.285156-25.285156 11.34375-25.285156 25.285156-25.285156zm157.117188 0c13.941406 0 25.285156 11.34375 25.285156 25.285156s-11.34375 25.285156-25.285156 25.285156c-13.945313 0-25.285156-11.34375-25.285156-25.285156s11.339843-25.285156 25.285156-25.285156zm0 0"/><path d="m108.21875 205.988281c13.953125 10.101563 33.25 15.441407 55.796875 15.441407 4.425781 0 8.929687-.25 13.449219-.742188 13.285156 11.132812 27.996094 12.15625 32.878906 12.15625h.144531l27.734375.21875-14.972656-23.105469c-.1875-.324219-1.15625-2.046875-2.3125-4.878906 15.929688-12.082031 24.546875-30.394531 24.546875-52.757813 0-22.957031-8.882813-41.5-25.691406-53.625-13.9375-10.054687-33.226563-15.367187-55.777344-15.367187-22.554687 0-41.839844 5.3125-55.777344 15.367187-16.808593 12.125-25.695312 30.667969-25.695312 53.625 0 22.953126 8.878906 41.511719 25.675781 53.667969zm17.566406-82.960937c8.796875-6.34375 22.015625-9.699219 38.230469-9.699219 16.210937 0 29.429687 3.355469 38.226563 9.699219 8.910156 6.429687 13.242187 16.011718 13.242187 29.292968 0 15.714844-6.179687 26.398438-18.894531 32.65625l-7.871094 3.878907-.199219-.234375-8.34375 1.414062c-5.453125.925782-10.890625 1.394532-16.164062 1.394532-23.480469 0-51.46875-6.785157-51.46875-39.109376 0-13.28125 4.332031-22.863281 13.242187-29.292968zm0 0"/><path d="m291.0625 205.078125c-1.15625 2.835937-2.125 4.558594-2.3125 4.882813l-14.710938 22.769531 27.460938.113281h.144531c4.894531 0 19.605469-1.023438 32.886719-12.15625 4.523438.492188 9.023438.742188 13.453125.742188 22.546875 0 41.839844-5.339844 55.796875-15.441407 16.796875-12.15625 25.675781-30.714843 25.675781-53.667969 0-22.953124-8.886719-41.496093-25.695312-53.621093-13.9375-10.054688-33.222657-15.371094-55.777344-15.371094-22.550781 0-41.839844 5.316406-55.773437 15.371094-16.8125 12.125-25.695313 30.667969-25.695313 53.621093 0 22.363282 8.617187 40.675782 24.546875 52.757813zm18.695312-82.050781c8.796876-6.34375 22.015626-9.699219 38.226563-9.699219 16.214844 0 29.433594 3.355469 38.230469 9.699219 8.910156 6.429687 13.242187 16.011718 13.242187 29.292968 0 32.324219-27.988281 39.109376-51.472656 39.109376-5.273437 0-10.710937-.46875-16.160156-1.394532l-8.34375-1.414062-.199219.234375-7.875-3.878907c-12.714844-6.261718-18.890625-16.941406-18.890625-32.65625 0-13.28125 4.332031-22.863281 13.242187-29.292968zm0 0"/></g></svg>